<?xml version="1.0" encoding="utf-8"?>
<!-- Svg Vector Icons : http://www.onlinewebfonts.com/icon -->
<!DOCTYPE svg PUBLIC "-//W3C//DTD SVG 1.1//EN" "http://www.w3.org/Graphics/SVG/1.1/DTD/svg11.dtd">
<svg version="1.1" xmlns="http://www.w3.org/2000/svg" xmlns:xlink="http://www.w3.org/1999/xlink" x="0px" y="0px" viewBox="0 0 1000 1000" enable-background="new 0 0 1000 1000" xml:space="preserve">
<metadata> Svg Vector Icons : http://www.onlinewebfonts.com/icon </metadata>
<g><path d="M273.4,389.8h6.1h6.1h6.1c18.4,6.1,36.8,6.1,61.3,6.1l0,0c6.1,0,12.2,0,18.4,0h6.1h6.1h6.1h6.1h6.1h6.1c0,0,0,0,6.1,0h6.1c6.1,0,6.1,0,12.2-6.1c0,0,0,0,6.1,0c0-6.1,0-6.1,6.1-6.1l0,0c6.1,0,6.1-6.1,12.3-6.1l0,0c55.1-36.8,85.8-98,85.8-159.3C549,101.9,457.1,10,353,10S163.1,95.8,157,193.8l0,0c0,6.1,0,6.1,0,12.2C157,285.6,199.9,359.1,273.4,389.8L273.4,389.8z M193.8,199.9L193.8,199.9c6.1-85.8,73.5-153.1,159.3-153.1c85.7,0,159.3,73.5,159.3,159.2c0,55.1-24.5,98-67.4,128.6l0,0c-6.1,0-6.1,6.1-12.3,6.1l0,0c-6.1,0-6.1,6.1-12.2,6.1h-6.1h-6.1H402h-6.1h-6.1c0,0,0,0-6.1,0h-6.1h-6.1c0,0,0,0-6.1,0c-6.1,0-12.2,0-18.4,0c-18.4,0-30.6,0-49-6.1c0,0,0,0-6.1,0h-6.1h-6.1c-49-12.3-85.7-67.4-85.7-134.8C193.8,206,193.8,206,193.8,199.9L193.8,199.9z M689.9,444.9c-55.1,0-104.1,18.4-147,42.9c-55.1-42.9-122.5-67.4-189.9-67.4c-171.5,0-312.4,140.9-312.4,312.4v6.1v24.5h379.8C444.9,892,555.1,990,689.9,990c147,0,269.5-122.5,269.5-269.5C959.4,567.4,836.9,444.9,689.9,444.9L689.9,444.9z M414.3,720.5H77.4c6.1-147,122.5-263.4,275.6-263.4c55.1,0,116.4,18.4,159.3,55.1l0,0c-12.3,6.1-18.4,12.2-18.4,18.4c0,0,0,0-6.1,6.1c-6.1,0-12.3,6.1-12.3,12.3c0,0,0,0-6.1,6.1s-6.1,12.3-12.3,18.4c0,0,0,0,0,6.1c-6.1,6.1-12.2,12.3-12.2,18.4l0,0c-6.1,12.3-12.3,18.4-12.3,30.6l0,0c0,6.1-6.1,18.4-6.1,24.5l0,0c0,6.1-6.1,18.4-6.1,24.5c0,0,0,0,0,6.1c0,12.3,0,18.4,0,30.6C414.3,720.5,414.3,720.5,414.3,720.5L414.3,720.5z M689.9,947.1c-122.5,0-220.5-91.9-232.8-208.2c0-6.1,0-18.4,0-24.5c0-6.1,0-18.4,0-24.5v-6.1c0-6.1,0-12.3,6.1-18.4v-6.1c0-6.1,6.1-12.3,6.1-18.4c0,0,0,0,0-6.1c6.1-12.3,6.1-18.4,12.3-24.5l0,0c6.1-18.4,18.4-30.6,30.6-49l0,0c6.1-6.1,12.3-12.3,18.4-18.4l0,0c6.1-6.1,12.3-12.3,18.4-12.3c0,0,0,0,6.1-6.1h6.1c36.8-24.5,79.6-36.8,128.6-36.8c128.6,0,232.8,104.1,232.8,232.8C922.6,843,818.5,947.1,689.9,947.1L689.9,947.1z M824.6,628.6c12.3,12.3,12.3,30.6,0,42.9l-140.9,147c-12.3,12.3-30.6,12.3-42.9,0l0,0l-79.6-79.6c-12.3-12.3-12.3-30.6,0-42.9c12.3-12.3,30.6-12.3,42.9,0l61.3,61.2l116.4-116.4C787.9,616.4,812.4,616.4,824.6,628.6L824.6,628.6z"/></g>
</svg>