<?xml version="1.0" encoding="utf-8"?>
<!-- Svg Vector Icons : http://www.onlinewebfonts.com/icon -->
<!DOCTYPE svg PUBLIC "-//W3C//DTD SVG 1.1//EN" "http://www.w3.org/Graphics/SVG/1.1/DTD/svg11.dtd">
<svg version="1.1" xmlns="http://www.w3.org/2000/svg" xmlns:xlink="http://www.w3.org/1999/xlink" x="0px" y="0px" viewBox="0 0 1000 1000" enable-background="new 0 0 1000 1000" xml:space="preserve">
<metadata> Svg Vector Icons : http://www.onlinewebfonts.com/icon </metadata>
<g><g transform="translate(0.000000,511.000000) scale(0.100000,-0.100000)"><path d="M5229.5,4995.4c-991.3-137.9-1816.6-881.5-2084.8-1877.9c-38.3-143.1-48.5-263.2-46-613.2c2.6-516.1,40.9-694.9,237.6-1098.6C3648,774.6,4207.5,307.1,4910.1,97.6c206.9-61.3,270.8-69,651.5-69c362.8,0,452.2,7.7,638.7,58.8c717.9,194.2,1303,671.9,1624.9,1331.1C8361.8,2512,8022,3840.5,7028.2,4550.8c-214.6,153.3-590.2,327-853.3,390.9C5927,5003,5474.8,5028.6,5229.5,4995.4z"/><path d="M1997.5-321.4c-339.8-51.1-577.4-173.7-832.9-429.2C799.3-1116,656.2-1560.6,743.1-2056.2c127.7-712.8,735.8-1226.4,1453.7-1226.4c431.8,0,761.4,130.3,1055.2,421.6c298.9,291.3,444.6,641.3,444.6,1060.3c0,424.1-135.4,748.6-434.3,1050.1c-145.6,148.2-242.7,217.2-385.8,286.1C2585.2-326.5,2283.7-278,1997.5-321.4z M2549.4-640.8c204.4-61.3,321.9-127.8,472.7-270.8c263.1-250.4,393.5-539.1,393.5-871.2c-2.6-334.7-97.1-587.6-309.1-820.1c-245.3-268.3-536.5-398.6-891.7-398.6c-475.2,0-878.9,250.4-1088.4,677.1c-319.4,656.6,12.8,1433.3,717.9,1678.6C2010.3-587.1,2362.9-584.6,2549.4-640.8z"/><path d="M2035.9-1302.5v-319.4H1742h-296.4l7.7-171.2l7.7-173.7l288.7-7.7l286.2-7.7v-304v-306.6h191.6h191.6v306.6v306.6h293.8h293.8v178.8v178.8h-293.8h-293.8v319.4v319.4h-191.6h-191.6V-1302.5z"/><path d="M4807.9-357.2c-263.1-43.4-610.6-137.9-853.3-235.1c-92-35.8-173.7-69-178.8-74.1c-5.1-2.6,15.3-38.3,43.4-79.2c204.4-291.3,316.8-666.8,316.8-1067.9c0-884-562.1-1614.7-1428.2-1857.4c-155.8-43.4-268.3-53.6-511-53.6l-314.3-2.6v-531.4V-4790h3699.5h3699.5l-10.2,1042.4l-10.2,1039.9l-99.6,201.8c-449.7,904.4-1323.5,1630-2360.8,1964.7C6310.2-382.8,6065-341.9,5523.3-331.7C5175.8-324,4971.5-331.7,4807.9-357.2z"/></g></g>
</svg>